<svg xmlns="http://www.w3.org/2000/svg" width="400" height="240" viewBox="0 0 400 240">
  <defs>
    <linearGradient id="bg" x1="0%" y1="0%" x2="100%" y2="100%">
      <stop offset="0%" style="stop-color:#f0f0f0"/>
      <stop offset="100%" style="stop-color:#e0e0e0"/>
    </linearGradient>
  </defs>
  <rect width="400" height="240" fill="url(#bg)" rx="12"/>
  <!-- Pharmacy shelf -->
  <rect x="40" y="40" width="200" height="10" fill="#555"/>
  <rect x="40" y="90" width="200" height="10" fill="#555"/>
  <rect x="40" y="140" width="200" height="10" fill="#555"/>
  <!-- Medicine bottles on shelves -->
  <rect x="55" y="20" width="18" height="20" fill="#888" rx="3"/>
  <rect x="80" y="15" width="18" height="25" fill="#777" rx="3"/>
  <rect x="105" y="22" width="18" height="18" fill="#999" rx="3"/>
  <rect x="130" y="18" width="18" height="22" fill="#888" rx="3"/>
  <rect x="160" y="20" width="18" height="20" fill="#777" rx="3"/>
  <rect x="190" y="16" width="18" height="24" fill="#999" rx="3"/>
  <!-- Second shelf items -->
  <rect x="55" y="70" width="18" height="20" fill="#777" rx="3"/>
  <rect x="80" y="65" width="18" height="25" fill="#888" rx="3"/>
  <rect x="105" y="72" width="18" height="18" fill="#777" rx="3"/>
  <rect x="130" y="68" width="18" height="22" fill="#999" rx="3"/>
  <rect x="160" y="70" width="18" height="20" fill="#888" rx="3"/>
  <rect x="190" y="66" width="18" height="24" fill="#777" rx="3"/>
  <!-- Third shelf items -->
  <rect x="55" y="120" width="18" height="20" fill="#999" rx="3"/>
  <rect x="80" y="115" width="18" height="25" fill="#777" rx="3"/>
  <rect x="105" y="122" width="18" height="18" fill="#888" rx="3"/>
  <rect x="130" y="118" width="18" height="22" fill="#777" rx="3"/>
  <!-- Scanner device -->
  <rect x="270" y="80" width="80" height="110" fill="#444" rx="8"/>
  <rect x="280" y="90" width="60" height="45" fill="#bbb" rx="4"/>
  <!-- Scanner screen content -->
  <rect x="285" y="95" width="50" height="6" fill="#888" rx="2"/>
  <rect x="285" y="106" width="35" height="6" fill="#888" rx="2"/>
  <rect x="285" y="117" width="45" height="6" fill="#888" rx="2"/>
  <!-- Checkmark on scanner -->
  <circle cx="310" cy="160" r="12" fill="#666"/>
  <polyline points="303,160 308,165 318,155" fill="none" stroke="#f0f0f0" stroke-width="3" stroke-linecap="round" stroke-linejoin="round"/>
  <!-- Barcode -->
  <rect x="60" y="170" width="2" height="30" fill="#444"/>
  <rect x="65" y="170" width="3" height="30" fill="#444"/>
  <rect x="71" y="170" width="1" height="30" fill="#444"/>
  <rect x="75" y="170" width="3" height="30" fill="#444"/>
  <rect x="81" y="170" width="2" height="30" fill="#444"/>
  <rect x="86" y="170" width="4" height="30" fill="#444"/>
  <rect x="93" y="170" width="1" height="30" fill="#444"/>
  <rect x="97" y="170" width="3" height="30" fill="#444"/>
  <rect x="103" y="170" width="2" height="30" fill="#444"/>
  <rect x="108" y="170" width="1" height="30" fill="#444"/>
  <rect x="112" y="170" width="3" height="30" fill="#444"/>
</svg>